<svg xmlns="http://www.w3.org/2000/svg" xml:space="preserve" style="fill-rule:evenodd;clip-rule:evenodd;stroke-linejoin:round;stroke-miterlimit:2" viewBox="0 0 1038 203"><path d="m301.286 202.661 7.142-33.6-24.603-22.8 15.807.2 7.142-33.6-11.92-16.385 37.351-.02-3.111-37.795-32.208-32.214-85.192 32.214-62.877 111.694 32.269 32.306z" style="fill:#222845;fill-rule:nonzero"/><path d="M331.46 96.461h42.4l-54.858 73.919 32.284 32.281h47.2l22.574-106.2h42.4l8.034-37.8-32.319-32.27-139.91 37.764z" style="fill:#222845;fill-rule:nonzero"/><path d="M453.079 167.136h39.395l-.69 3.237 32.286 32.288h47.85l7.551-35.525h21.266l7.962-37.458-.565-97.392L575.847.002 446.174 95.915l-25.364 38.919z" style="fill:#222845;fill-rule:nonzero"/><path d="M741.503 58.661 709.2 26.396l-40.497 32.265-32.289-32.285-40.265 143.713 32.146 32.572h46.4l34.169-83.6h.4l-33.251 51.496 32.082 32.104h46.4l66.408-144-32.456-32.236-50.683 110.2z" style="fill:#222845;fill-rule:nonzero"/><path d="m846.295 202.661 30.608-144-32.348-32.296-77.694 144.07 32.234 32.226z" style="fill:#222845;fill-rule:nonzero"/><path d="m953.409 65.738-42.947-39.2-74.717 143.909 32.15 32.214h45.2l9.692-45.6 5.172-32.8 2.515 45.923 32.221 32.477h44.2l30.608-144-32.29-32.277-22.645 78.077-5.172 32.8zM102.486 202.661q14.6 0 26.389-2.3t20.973-7.4 15.27-13.5 8.593-20.2q2.552-12-1.836-21c-2.925-6-3.879-19.7.935-25.1 4.815-5.4 4.246-15.646 5.692-22.446 1.473-6.933 1.202-21.027-1.521-26.197-2.205-4.187-7.744-8.323-7.744-8.323s-31.265-26.33-39.931-26.33L62.894 43.416.023 170.375l32.263 32.286z" style="fill:#222845;fill-rule:nonzero"/><path d="M.383-.301q.067 0 .098.012.033.012.032.055 0 .037-.027.051a.15.15 0 0 1-.075.015H.308v-.133zm.008-.251q.05 0 .073.01t.023.047q0 .03-.022.047a.1.1 0 0 1-.059.016H.308v-.12zM.423 0a.6.6 0 0 0 .13-.012.3.3 0 0 0 .097-.037.2.2 0 0 0 .062-.067.2.2 0 0 0 .021-.101q0-.06-.031-.105a.15.15 0 0 0-.089-.06.3.3 0 0 0 .067-.066.16.16 0 0 0 .027-.091.16.16 0 0 0-.022-.088.16.16 0 0 0-.061-.055.3.3 0 0 0-.091-.029A1 1 0 0 0 .416-.72H.072V0z" style="fill:#4270ff;fill-rule:nonzero" transform="matrix(200 0 -42.5113 200 -14.4 170.38)"/><path d="M.677 0v-.168H.312v-.113h.297v-.168H.312v-.103h.351V-.72H.076V0z" style="fill:#4270ff;fill-rule:nonzero" transform="matrix(200 0 -42.5113 200 133.6 170.38)"/><path d="M.031-.531h.212V0h.236v-.531h.212V-.72h-.66z" style="fill:#4270ff;fill-rule:nonzero" transform="matrix(200 0 -42.5113 200 270.397 170.38)"/><path d="M.025-.147H.35V0h.198v-.147h.088v-.155H.548v-.403H.354l-.329.391zm.325-.37v.215H.182z" style="fill:#4270ff;fill-rule:nonzero" transform="translate(407.197 170.38)scale(241.667)skewX(-12)"/><path d="M.597-.72H.402l-.086.445H.314L.233-.72H.005L.184 0h.232l.082-.418H.5L.583 0h.232l.179-.72H.766l-.081.445H.683z" style="fill:#4270ff;fill-rule:nonzero" transform="matrix(200 0 -42.5113 200 559.207 170.38)"/><path d="M.076-.72h.236V0H.076z" style="fill:#4270ff;fill-rule:nonzero" transform="matrix(200 0 -42.5113 200 751.607 170.38)"/><path d="M.29-.72H.069V0h.226v-.228L.286-.392.543 0h.221v-.72H.538v.229l.009.164z" style="fill:#4270ff;fill-rule:nonzero" transform="matrix(200 0 -42.5113 200 821.807 170.38)"/></svg>